<svg id="Attachment" xmlns="http://www.w3.org/2000/svg" width="25" height="25" viewBox="0 0 25 25">
  <circle id="Ellipse_57" data-name="Ellipse 57" cx="12.5" cy="12.5" r="12.5" fill="#f8f8f8"/>
  <path id="Path_113" data-name="Path 113" d="M1200.095,1350.232l6.99-6.989a3.535,3.535,0,0,0,0-5h0a3.534,3.534,0,0,0-5,0l-1.095,1.095-6.739,6.74a2.341,2.341,0,0,0,0,3.311h0a2.341,2.341,0,0,0,3.312,0l1.537-1.537,6.3-6.3a1.171,1.171,0,0,0,0-1.656h0a1.171,1.171,0,0,0-1.655,0l-6.414,6.414" transform="translate(-1188.696 -1331.219)" fill="none" stroke="#0069f1" stroke-linecap="round" stroke-miterlimit="10" stroke-width="1"/>
</svg>
