<svg xmlns="http://www.w3.org/2000/svg" width="26.628" height="85" viewBox="0 0 26.628 85">
  <path id="Path_50" data-name="Path 50" d="M939.205,1357.8c-7.736,0-10.842-1.005-11.786-1.949a3.4,3.4,0,0,1-1.051-1.706s-.023-36.2-.023-39.515a7.5,7.5,0,0,1,2.513-6.053,24.178,24.178,0,0,1,3.677-2.535c.263-.263.229-.983.229-.983h-.731a.84.84,0,0,1-.96-.936c0-.32.092-.5.252-.571s1.461-.046,1.576-.16.068-.525.068-.525c-.936,0-2.01-.092-2.01-.092v-4.774l.937-1.1s.137-8.588.137-9.411.338-.89.959-.89c0,0,.021-2.562.021-3.387s.122-.915,1.406-.915v-5.452a2.106,2.106,0,0,1,1.827-2.253c1.1-.274,8.862-1.8,10.324-1.8.378,0,.378.24.378.393a5.626,5.626,0,0,1-.642,2.139,15.949,15.949,0,0,1-1.376,2.017c-.152.214-.03,4.953-.03,4.953,1.283,0,1.406.089,1.406.915s.021,3.387.021,3.387c.621,0,.959.068.959.89s.137,9.411.137,9.411l.936,1.1v4.774s-1.073.092-2.01.092c0,0-.045.411.069.525s1.416.091,1.576.16.251.251.251.571a.839.839,0,0,1-.959.936h-.731s-.034.72.228.983a24.116,24.116,0,0,1,3.678,2.535,7.5,7.5,0,0,1,2.512,6.053c0,3.312-.022,39.515-.022,39.515a3.4,3.4,0,0,1-1.051,1.706c-.944.944-4.051,1.949-11.786,1.949Z" transform="translate(-926.345 -1272.804)" fill="#0069f1"/>
</svg>
