<svg xmlns="http://www.w3.org/2000/svg" width="65" height="65" viewBox="0 0 65 65">
  <g id="Group_1898" data-name="Group 1898" transform="translate(-1264 -76)">
    <g id="Group_1539" data-name="Group 1539" transform="translate(1264 76)">
      <path id="Path_357" data-name="Path 357" d="M760.037,783.763c0,4.068-5.619,6.988-7.086,10.526-1.52,3.667.33,9.692-2.433,12.455s-8.789.913-12.456,2.433c-3.537,1.467-6.458,7.086-10.525,7.086s-6.989-5.619-10.526-7.086c-3.667-1.52-9.692.33-12.455-2.433s-.913-8.788-2.434-12.455c-1.466-3.538-7.085-6.458-7.085-10.526s5.619-6.989,7.085-10.526c1.521-3.667-.329-9.692,2.434-12.456s8.789-.913,12.456-2.433c3.537-1.467,6.458-7.086,10.525-7.086s6.989,5.619,10.525,7.086c3.667,1.521,9.692-.33,12.456,2.433s.913,8.788,2.433,12.456C754.418,776.774,760.037,779.7,760.037,783.763Z" transform="translate(-695.037 -751.263)" fill="#fff"/>
      <path id="Path_358" data-name="Path 358" d="M760.037,783.763c0,4.068-5.619,6.988-7.086,10.526-1.52,3.667.33,9.692-2.433,12.455s-8.789.913-12.456,2.433c-3.537,1.467-6.458,7.086-10.525,7.086s-6.989-5.619-10.526-7.086c-3.667-1.52-9.692.33-12.455-2.433s-.913-8.788-2.434-12.455c-1.466-3.538-7.085-6.458-7.085-10.526s5.619-6.989,7.085-10.526c1.521-3.667-.329-9.692,2.434-12.456s8.789-.913,12.456-2.433c3.537-1.467,6.458-7.086,10.525-7.086s6.989,5.619,10.525,7.086c3.667,1.521,9.692-.33,12.456,2.433s.913,8.788,2.433,12.456C754.418,776.774,760.037,779.7,760.037,783.763Z" transform="translate(-695.037 -751.263)" fill="none"/>
    </g>
    <g id="Group_1744" data-name="Group 1744" transform="translate(1283.623 96.164)">
      <ellipse id="Ellipse_99" data-name="Ellipse 99" cx="1.847" cy="3.562" rx="1.847" ry="3.562" transform="translate(3.673 0.637)" fill="#0169f1"/>
      <ellipse id="Ellipse_100" data-name="Ellipse 100" cx="1.938" cy="3.738" rx="1.938" ry="3.738" transform="matrix(0.999, -0.052, 0.052, 0.999, 16.785, 0.201)" fill="#0169f1"/>
      <path id="Path_361" data-name="Path 361" d="M1792.259,1541.094c.427,0,1.284,1.326,1.284,5.048a6.058,6.058,0,0,1-.214,1.754s3.037,2.995,9.624,2.995a20.188,20.188,0,0,0,10.907-3.08,8.425,8.425,0,0,1-.77-3.85c0-2.481.941-3.807,1.2-3.807s0,.9,0,1.669c0,2.438,1.2,6.416,1.882,7.1s.9,1.54.342,1.54-2.053-1.8-2.053-1.8a18.368,18.368,0,0,1-11.336,3.806c-6.972,0-10.223-3.592-10.223-3.592s-.855,2.1-2.139,2.1,1-1.312,1.354-4.951C1792.429,1542.858,1791.831,1541.094,1792.259,1541.094Z" transform="translate(-1790.374 -1527.753)" fill="#0169f1"/>
    </g>
  </g>
</svg>
