<svg xmlns="http://www.w3.org/2000/svg" width="51" height="44.457" viewBox="0 0 51 44.457">
  <g id="Group_1878" data-name="Group 1878" transform="translate(-1552.904 -2470.139)">
    <path id="Path_377" data-name="Path 377" d="M1597.243,2482.222a12.043,12.043,0,0,0-20.98-7.6,10.45,10.45,0,0,0-17.09,8.063c0,.308.011.616.04.917a12.5,12.5,0,0,0,.256,21.27,11.85,11.85,0,0,0,18.5,6.976,12.8,12.8,0,0,0,19.385-6.475,14.026,14.026,0,0,0-.114-23.149Z" transform="translate(0 0)" fill="none" stroke="#7116DB" stroke-linejoin="round" stroke-miterlimit="10" stroke-width="1"/>
    <g id="Group_1877" data-name="Group 1877" transform="translate(1569.314 2483.844)">
      <ellipse id="Ellipse_109" data-name="Ellipse 109" cx="1.269" cy="2.448" rx="1.269" ry="2.448" transform="translate(2.524 0.438)" fill="#7116DB" stroke="#7116DB" stroke-width="1"/>
      <ellipse id="Ellipse_110" data-name="Ellipse 110" cx="1.332" cy="2.569" rx="1.332" ry="2.569" transform="matrix(0.999, -0.052, 0.052, 0.999, 11.535, 0.138)" fill="#7116DB" stroke="#7116DB" stroke-width="1"/>
      <path id="Path_378" data-name="Path 378" d="M1583.835,2509.43c.294,0,.882.912.882,3.469a4.182,4.182,0,0,1-.146,1.206s2.086,2.058,6.613,2.058a13.87,13.87,0,0,0,7.5-2.117,5.783,5.783,0,0,1-.529-2.646c0-1.7.646-2.616.823-2.616s0,.618,0,1.146a11.008,11.008,0,0,0,1.293,4.879c.47.471.618,1.059.235,1.059s-1.411-1.235-1.411-1.235a12.621,12.621,0,0,1-7.789,2.616c-4.791,0-7.025-2.469-7.025-2.469s-.588,1.44-1.469,1.44.684-.9.931-3.4C1583.951,2510.643,1583.542,2509.43,1583.835,2509.43Z" transform="translate(-1582.54 -2500.263)" fill="#7116DB" stroke="#7116DB" stroke-width="1"/>
    </g>
  </g>
</svg>  
