<svg xmlns="http://www.w3.org/2000/svg" width="57.738" height="60.443" viewBox="0 0 57.738 60.443">
  <g id="Group_2598" data-name="Group 2598" transform="translate(-945.926 -1534.44)">
    <path id="Path_429" data-name="Path 429" d="M972.792,1603.5c-18.58,0-24.5-6.746-24.751-7.045l-.115-.138v-26.676l.276-.139c.044-.014.458,8.579,26.593,8.579,21.805,0,26.547-5.993,26.547-8.6l.322.115v26.629l-.115.139c-.231.276-5.871,6.677-27.215,7.092C973.8,1603.5,973.3,1603.5,972.792,1603.5Z" transform="translate(0 -8.621)" fill="#7116db"/>
    <g id="Path_430" data-name="Path 430" transform="translate(0 -2.58)" fill="#7116db" stroke-miterlimit="10">
      <path d="M 974.7949829101562 1573.044189453125 C 967.3823852539062 1573.044189453125 960.4136962890625 1572.170532226562 955.172607421875 1570.584106445312 C 952.6455688476562 1569.819213867188 950.5748291015625 1568.888671875 949.184326171875 1567.892822265625 C 947.68603515625 1566.821533203125 946.926025390625 1565.669799804688 946.926025390625 1564.47021484375 C 946.926025390625 1563.272094726562 947.68603515625 1562.121215820312 949.1848754882812 1561.049438476562 C 950.574951171875 1560.05419921875 952.6456909179688 1559.12353515625 955.1726684570312 1558.358764648438 C 959.51171875 1557.045654296875 965.2501220703125 1556.195434570312 971.3309326171875 1555.96484375 L 973.5090942382812 1555.882202148438 L 973.23388671875 1556.227661132812 C 973.717041015625 1556.010986328125 974.2463989257812 1555.89697265625 974.7949829101562 1555.89697265625 L 974.9803466796875 1555.89697265625 C 974.8946533203125 1555.6240234375 974.849853515625 1555.340087890625 974.849853515625 1555.053466796875 C 974.849853515625 1554.211669921875 975.2364501953125 1553.393188476562 975.9104614257812 1552.807861328125 C 976.567626953125 1552.237060546875 977.4468994140625 1551.922729492188 978.3862915039062 1551.922729492188 L 982.4896240234375 1551.922729492188 C 982.4876708984375 1551.922729492188 983.1753540039062 1551.92138671875 983.7354125976562 1551.92138671875 C 984.0151977539062 1551.92138671875 984.2635498046875 1551.921752929688 984.3812255859375 1551.922729492188 L 984.3828735351562 1551.922729492188 C 987.9714965820312 1551.922729492188 990.8915405273438 1548.996826171875 990.8950805664062 1545.399047851562 C 990.89306640625 1545.381103515625 990.8858642578125 1545.341186523438 990.8805541992188 1545.311401367188 C 990.8649291992188 1545.22412109375 990.8455200195312 1545.115478515625 990.8379516601562 1544.986450195312 L 990.6895751953125 1542.451538085938 L 992.3856201171875 1544.070068359375 C 995.02392578125 1545.144775390625 996.7190551757812 1547.604614257812 996.7223510742188 1550.393310546875 C 996.7223510742188 1552.088134765625 996.119873046875 1553.689331054688 995.0164794921875 1554.952270507812 L 996.0202026367188 1554.952270507812 C 997.1915283203125 1554.952270507812 998.2864990234375 1555.404296875 999.1033325195312 1556.224975585938 C 999.9193725585938 1557.044799804688 1000.368774414062 1558.143676757812 1000.368774414062 1559.318969726562 C 1000.368774414062 1559.836791992188 1000.281494140625 1560.339965820312 1000.114135742188 1560.810913085938 L 1000.736511230469 1561.297607421875 C 1002.015441894531 1562.297729492188 1002.663940429688 1563.365112304688 1002.663940429688 1564.47021484375 C 1002.663940429688 1565.669555664062 1001.904296875 1566.821166992188 1000.406005859375 1567.89306640625 C 999.0133056640625 1568.889282226562 996.9425048828125 1569.81982421875 994.4173583984375 1570.584106445312 C 989.1762084960938 1572.170532226562 982.20751953125 1573.044189453125 974.7949829101562 1573.044189453125 Z" stroke="none"/>
      <path d="M 991.8362426757812 1544.927978515625 C 991.8453369140625 1545.083251953125 991.8950805664062 1545.233276367188 991.8950805664062 1545.39013671875 L 991.8950805664062 1545.392333984375 C 991.8950805664062 1549.54248046875 988.5223999023438 1552.922729492188 984.3828735351562 1552.922729492188 L 984.3768920898438 1552.922729492188 C 984.0343017578125 1552.91943359375 982.489501953125 1552.922607421875 982.4896240234375 1552.922729492188 L 978.3862915039062 1552.922729492188 C 976.9144897460938 1552.922729492188 975.849853515625 1553.91943359375 975.849853515625 1555.053466796875 C 975.849853515625 1556.188354492188 976.9144897460938 1557.184326171875 978.3862915039062 1557.184326171875 C 978.3905029296875 1557.184326171875 978.3947143554688 1557.184204101562 978.39892578125 1557.184204101562 C 978.8336181640625 1557.184204101562 979.1893920898438 1557.533081054688 979.1961059570312 1557.96923828125 C 979.2036743164062 1558.410278320312 978.852294921875 1558.773803710938 978.4119262695312 1558.781982421875 L 978.3862915039062 1558.781982421875 C 976.8782958984375 1558.781982421875 975.5150756835938 1558.036376953125 974.7949829101562 1556.89697265625 C 973.2296752929688 1556.89697265625 971.9848022460938 1558.153930664062 971.9848022460938 1559.760009765625 C 971.9848022460938 1561.365234375 973.2462768554688 1562.687866210938 974.7949829101562 1562.687866210938 C 975.2332153320312 1562.669067382812 975.6047973632812 1563.0126953125 975.6221313476562 1563.453002929688 C 975.6402587890625 1563.894165039062 975.2979125976562 1564.26513671875 974.8583374023438 1564.283325195312 C 974.8372192382812 1564.284057617188 974.8161010742188 1564.284057617188 974.7949829101562 1564.283325195312 C 972.3467407226562 1564.283325195312 970.3916015625 1562.211181640625 970.3916015625 1559.760009765625 C 970.3916015625 1558.702880859375 970.7579956054688 1557.73095703125 971.3688354492188 1556.964111328125 C 965.1663818359375 1557.199340820312 959.61083984375 1558.060424804688 955.4623413085938 1559.31591796875 C 953.0133056640625 1560.05712890625 951.0543823242188 1560.940795898438 949.7665405273438 1561.862915039062 C 948.4779663085938 1562.784301757812 947.926025390625 1563.671752929688 947.926025390625 1564.47021484375 C 947.926025390625 1565.26953125 948.4779663085938 1566.158447265625 949.7665405273438 1567.079833984375 C 951.0543823242188 1568.002075195312 953.0133056640625 1568.8857421875 955.4623413085938 1569.626953125 C 960.36181640625 1571.109985351562 967.2202758789062 1572.044189453125 974.7949829101562 1572.044189453125 C 982.3696899414062 1572.044189453125 989.2281494140625 1571.109985351562 994.127685546875 1569.626953125 C 996.57666015625 1568.8857421875 998.5348510742188 1568.002075195312 999.8241577148438 1567.079833984375 C 1001.111999511719 1566.158447265625 1001.663940429688 1565.26953125 1001.663940429688 1564.47021484375 C 1001.663940429688 1563.73583984375 1001.196472167969 1562.9267578125 1000.120483398438 1562.085327148438 C 999.2315063476562 1563.409301757812 997.725830078125 1564.283325195312 996.0202026367188 1564.283325195312 C 995.5816650390625 1564.300415039062 995.209716796875 1563.95751953125 995.1915893554688 1563.516479492188 C 995.1749877929688 1563.076049804688 995.5166015625 1562.705078125 995.9561157226562 1562.687866210938 C 995.9779663085938 1562.686157226562 995.9983520507812 1562.686157226562 996.0202026367188 1562.687866210938 C 997.8871459960938 1562.687866210938 999.3687744140625 1561.199462890625 999.3687744140625 1559.318969726562 C 999.3687744140625 1557.4384765625 997.8871459960938 1555.952270507812 996.0202026367188 1555.952270507812 L 994.6969604492188 1555.952270507812 C 994.2655639648438 1556.04150390625 993.8441772460938 1555.762939453125 993.7559814453125 1555.33251953125 C 993.70166015625 1555.0693359375 993.7816162109375 1554.797119140625 993.9708251953125 1554.607177734375 L 993.9881591796875 1554.588989257812 C 995.0603637695312 1553.5146484375 995.7223510742188 1552.03662109375 995.7223510742188 1550.39453125 C 995.7193603515625 1547.880615234375 994.1102905273438 1545.78076171875 991.8377685546875 1544.929443359375 L 991.8362426757812 1544.927978515625 M 989.5427856445312 1539.976440429688 L 992.9431762695312 1543.219848632812 C 994.2718505859375 1543.798095703125 995.40869140625 1544.70556640625 996.2494506835938 1545.86328125 C 997.2110595703125 1547.1875 997.7203979492188 1548.753540039062 997.7223510742188 1550.392211914062 C 997.7223510742188 1551.673950195312 997.4214477539062 1552.908447265625 996.8530883789062 1554.015502929688 C 997.9737548828125 1554.187622070312 999.003173828125 1554.706787109375 999.8121337890625 1555.51953125 C 1000.81591796875 1556.528076171875 1001.368774414062 1557.87744140625 1001.368774414062 1559.318969726562 C 1001.368774414062 1559.698608398438 1001.330444335938 1560.07177734375 1001.255615234375 1560.43408203125 L 1001.352478027344 1560.509887695312 C 1002.88623046875 1561.709228515625 1003.663940429688 1563.041748046875 1003.663940429688 1564.47021484375 C 1003.663940429688 1566.0107421875 1002.763610839844 1567.43603515625 1000.987915039062 1568.706420898438 C 999.50732421875 1569.765502929688 997.3355102539062 1570.745727539062 994.70703125 1571.541259765625 C 989.3746337890625 1573.1552734375 982.302978515625 1574.044189453125 974.7949829101562 1574.044189453125 C 967.2869262695312 1574.044189453125 960.21533203125 1573.1552734375 954.8829345703125 1571.541137695312 C 952.25244140625 1570.7451171875 950.08056640625 1569.7646484375 948.6021118164062 1568.705932617188 C 946.8267822265625 1567.436401367188 945.926025390625 1566.011108398438 945.926025390625 1564.47021484375 C 945.926025390625 1562.930908203125 946.8267822265625 1561.506225585938 948.603271484375 1560.236083984375 C 950.0807495117188 1559.178100585938 952.2525634765625 1558.19775390625 954.8829956054688 1557.401611328125 C 959.3014526367188 1556.064453125 965.1293334960938 1555.199340820312 971.2930297851562 1554.965576171875 L 973.8544311523438 1554.868408203125 C 973.9069213867188 1553.803344726562 974.4107055664062 1552.785888671875 975.2546997070312 1552.052856445312 C 976.0938110351562 1551.324096679688 977.2059936523438 1550.922729492188 978.3862915039062 1550.922729492188 L 982.4896240234375 1550.922729492188 C 982.4856567382812 1550.922729492188 983.1744384765625 1550.92138671875 983.7354125976562 1550.92138671875 C 984.0151977539062 1550.92138671875 984.263916015625 1550.921752929688 984.3851318359375 1550.922729492188 C 987.3952026367188 1550.921508789062 989.848876953125 1548.487182617188 989.8944091796875 1545.477661132812 C 989.8763427734375 1545.37646484375 989.850341796875 1545.227172851562 989.8396606445312 1545.044921875 L 989.5427856445312 1539.976440429688 Z" stroke="none" fill="#fff"/>
    </g>
    <path id="Path_431" data-name="Path 431" d="M994,1548.875a.713.713,0,0,0-.7.724v.533a.712.712,0,1,0,1.424.043.42.42,0,0,0,0-.043v-.533a.712.712,0,0,0-.7-.724Z" transform="translate(-11.16 -3.551)" fill="#7116db"/>
    <path id="Path_432" data-name="Path 432" d="M996.121,1546.769a.714.714,0,0,0,0,1.427h.531a.714.714,0,0,0,0-1.427Z" transform="translate(-11.68 -3.033)" fill="#7116db"/>
    <path id="Path_433" data-name="Path 433" d="M991.187,1546.769a.714.714,0,0,0,0,1.427h.531a.714.714,0,0,0,0-1.427Z" transform="translate(-10.467 -3.033)" fill="#7116db"/>
    <path id="Path_434" data-name="Path 434" d="M994,1543.929a.714.714,0,0,0-.7.724v.534a.712.712,0,1,0,1.424.043.42.42,0,0,0,0-.043v-.534a.713.713,0,0,0-.7-.724Z" transform="translate(-11.16 -2.334)" fill="#7116db"/>
    <path id="Path_435" data-name="Path 435" d="M975.877,1539.385a.714.714,0,0,0-.7.724v.533a.712.712,0,0,0,1.424,0v-.533a.713.713,0,0,0-.7-.724Z" transform="translate(-6.703 -1.216)" fill="#7116db"/>
    <path id="Path_436" data-name="Path 436" d="M978,1537.279a.714.714,0,0,0,0,1.428h.532a.714.714,0,0,0,0-1.428Z" transform="translate(-7.223 -0.698)" fill="#7116db"/>
    <path id="Path_437" data-name="Path 437" d="M973.069,1537.279a.714.714,0,0,0,0,1.428h.532a.714.714,0,0,0,0-1.428Z" transform="translate(-6.01 -0.698)" fill="#7116db"/>
    <path id="Path_438" data-name="Path 438" d="M975.877,1534.44a.714.714,0,0,0-.7.724v.532a.712.712,0,0,0,1.424,0v-.532a.713.713,0,0,0-.7-.724Z" transform="translate(-6.703)" fill="#7116db"/>
    <path id="Path_439" data-name="Path 439" d="M961.582,1553.444a.573.573,0,0,0-.561.58v.427a.57.57,0,0,0,1.14,0v-.427a.572.572,0,0,0-.562-.58Z" transform="translate(-3.221 -4.675)" fill="#7116db"/>
    <path id="Path_440" data-name="Path 440" d="M963.283,1551.76a.571.571,0,0,0,0,1.142h.425a.571.571,0,0,0,0-1.142Z" transform="translate(-3.638 -4.261)" fill="#7116db"/>
    <path id="Path_441" data-name="Path 441" d="M959.335,1551.76a.571.571,0,0,0,0,1.142h.425a.571.571,0,0,0,0-1.142Z" transform="translate(-2.666 -4.261)" fill="#7116db"/>
    <path id="Path_442" data-name="Path 442" d="M961.582,1549.488a.572.572,0,0,0-.561.579v.425a.57.57,0,0,0,1.14,0v-.425a.571.571,0,0,0-.562-.579Z" transform="translate(-3.221 -3.702)" fill="#7116db"/>
  </g>
</svg>
