<svg xmlns="http://www.w3.org/2000/svg" width="35" height="28.951" viewBox="0 0 35 28.951">
  <g id="Group_1710" data-name="Group 1710" transform="translate(-102.799 -130.775)">
    <path id="Path_244" data-name="Path 244" d="M137.8,158.1V135.181a1.724,1.724,0,0,0-.026-.258,1.373,1.373,0,0,0-.185-.57,1.462,1.462,0,0,0-1.415-.8H115.827c-.439-.147-.713-.516-1.375-1.4a3.009,3.009,0,0,0-2.371-1.372s-2.507-.005-4.714,0h-2.942a1.724,1.724,0,0,0-.243.024,1.01,1.01,0,0,0-.331.082,1.47,1.47,0,0,0-1.053,1.52v25.7a1.593,1.593,0,0,0,1.626,1.627h31.747A1.593,1.593,0,0,0,137.8,158.1" transform="translate(0 0)" opacity="0.3"/>
    <path id="Path_245" data-name="Path 245" d="M104.426,169.646s-1.626,0-1.626,1.506v19.72a1.515,1.515,0,0,0,1.626,1.506h31.747s1.626,0,1.626-1.506v-19.72a1.515,1.515,0,0,0-1.626-1.506Z" transform="translate(-0.001 -32.652)" opacity="0.3"/>
  </g>
</svg>
