<svg id="Emoji" xmlns="http://www.w3.org/2000/svg" width="25" height="25" viewBox="0 0 25 25">
  <circle id="Ellipse_78" data-name="Ellipse 78" cx="12.5" cy="12.5" r="12.5" fill="#f8f8f8"/>
  <g id="Emoji-2" data-name="Emoji" transform="translate(3.999 4)">
    <circle id="Ellipse_57" data-name="Ellipse 57" cx="8.5" cy="8.5" r="8.5" fill="#fff" stroke="#0069f1" stroke-miterlimit="10" stroke-width="1"/>
    <g id="Group_184" data-name="Group 184" transform="translate(3.878 4.427)">
      <ellipse id="Ellipse_55" data-name="Ellipse 55" cx="0.744" cy="1.434" rx="0.744" ry="1.434" transform="translate(1.479 0.257)" fill="#0069f1"/>
      <ellipse id="Ellipse_56" data-name="Ellipse 56" cx="0.781" cy="1.505" rx="0.781" ry="1.505" transform="matrix(0.999, -0.052, 0.052, 0.999, 5.722, 0.081)" fill="#0069f1"/>
      <path id="Path_42" data-name="Path 42" d="M1167.946,1344.794c.15,0,.45.534.45,2.033a2.794,2.794,0,0,1-.075.707,4.592,4.592,0,0,0,3.377,1.205,6.486,6.486,0,0,0,3.827-1.24,3.807,3.807,0,0,1-.27-1.55c0-1,.33-1.533.421-1.533s0,.362,0,.671a7.194,7.194,0,0,0,.66,2.859c.24.276.315.62.12.62s-.72-.723-.72-.723a6,6,0,0,1-3.978,1.533,4.645,4.645,0,0,1-3.588-1.447s-.3.844-.75.844.349-.529.474-1.994C1168.005,1345.5,1167.8,1344.794,1167.946,1344.794Z" transform="translate(-1167.285 -1341.504)" fill="#0069f1"/>
    </g>
  </g>
</svg>
