<svg xmlns="http://www.w3.org/2000/svg" width="155.094" height="103.64" viewBox="0 0 155.094 103.64">
  <g id="Group_1705" data-name="Group 1705" transform="matrix(0.966, 0.259, -0.259, 0.966, 585.309, -488.71)">
    <g id="Group_1703" data-name="Group 1703" transform="translate(-420.561 619.908)">
      <path id="Path_231" data-name="Path 231" d="M-350.561,654.3a36.364,36.364,0,0,1,35.694,29.675,3.913,3.913,0,0,0,4.2,3.148l26.5-2.319a3.934,3.934,0,0,0,3.559-4.469,70.718,70.718,0,0,0-69.959-60.428,70.718,70.718,0,0,0-69.959,60.428,3.933,3.933,0,0,0,3.559,4.469l26.5,2.319a3.914,3.914,0,0,0,4.2-3.148A36.364,36.364,0,0,1-350.561,654.3Z" transform="translate(420.561 -619.908)" fill="#7cc369" stroke="#7cc369" stroke-miterlimit="10" stroke-width="2"/>
    </g>
    <g id="Group_1704" data-name="Group 1704" transform="translate(-406.931 631.39)">
      <path id="Path_232" data-name="Path 232" d="M-380.1,705.369l-8.062,2.436.983,3.221,4.142,1.662-.628,1.565-11.287-4.529.628-1.566,5.564,2.233-2.862-8.967.8-1.992,2.229,6.841,9.262-2.817Z" transform="translate(394.955 -668.593)" fill="#fff"/>
      <path id="Path_233" data-name="Path 233" d="M-372.716,693.917a2.883,2.883,0,0,0,2.291.51,3.364,3.364,0,0,0,2.019-1.46q1.43-2.013.548-3.33l.888-1.249q1.821,2.171-.448,5.365a4.878,4.878,0,0,1-3.042,2.164,4.455,4.455,0,0,1-3.49-.912,5.022,5.022,0,0,1-1.659-1.9,4.21,4.21,0,0,1-.393-2.359,5.22,5.22,0,0,1,.99-2.451,4.881,4.881,0,0,1,2.964-2.157,4.255,4.255,0,0,1,3.379.876l.57.4Zm2.723-5.921a2.506,2.506,0,0,0-2.094-.464,3.492,3.492,0,0,0-1.921,1.5,3.314,3.314,0,0,0-.68,2.192,2.885,2.885,0,0,0,1,1.967Z" transform="translate(386.104 -662.341)" fill="#fff"/>
      <path id="Path_234" data-name="Path 234" d="M-358.974,677.471a2.886,2.886,0,0,0,2.121,1.007,3.36,3.36,0,0,0,2.293-.974q1.843-1.644,1.275-3.125l1.143-1.021q1.293,2.522-1.629,5.131a4.879,4.879,0,0,1-3.447,1.434,4.456,4.456,0,0,1-3.2-1.665,5.024,5.024,0,0,1-1.2-2.221,4.214,4.214,0,0,1,.141-2.387,5.216,5.216,0,0,1,1.51-2.17,4.88,4.88,0,0,1,3.369-1.444,4.256,4.256,0,0,1,3.1,1.6l.465.521ZM-355,672.3a2.5,2.5,0,0,0-1.939-.918,3.493,3.493,0,0,0-2.206,1.034,3.312,3.312,0,0,0-1.15,1.985,2.885,2.885,0,0,0,.542,2.142Z" transform="translate(379.406 -654.843)" fill="#fff"/>
      <path id="Path_235" data-name="Path 235" d="M-340.347,671.086-346.1,660.43l1.394-.753.761,1.409a3.972,3.972,0,0,1,.772-1.975,5.181,5.181,0,0,1,1.77-1.527,4.774,4.774,0,0,1,2.309-.617,3.915,3.915,0,0,1,2.154.656,5.067,5.067,0,0,1,1.672,1.9,5.169,5.169,0,0,1,.663,2.41,4.136,4.136,0,0,1-.622,2.253,4.834,4.834,0,0,1-1.882,1.713,4.354,4.354,0,0,1-4.077.266l2.25,4.167Zm-2.152-7.318a3.079,3.079,0,0,0,1.832,1.528,2.748,2.748,0,0,0,1.241.094,3.863,3.863,0,0,0,1.3-.441,3.437,3.437,0,0,0,1.82-1.97,3.438,3.438,0,0,0-.441-2.646,3.327,3.327,0,0,0-1.926-1.738,3.254,3.254,0,0,0-2.545.378,3.751,3.751,0,0,0-1.1.9,3.337,3.337,0,0,0-.652,1.194,2.965,2.965,0,0,0-.109,1.143,2.827,2.827,0,0,0,.324,1.083Z" transform="translate(372.097 -648.731)" fill="#fff"/>
      <path id="Path_236" data-name="Path 236" d="M-312.866,655.259l-2.765-11.844,1.642-.383,2.765,11.843Z" transform="translate(357.841 -642.214)" fill="#fff"/>
      <path id="Path_237" data-name="Path 237" d="M-299.129,653.584a6.856,6.856,0,0,1-2.13.579,2.864,2.864,0,0,1-2.193-.46,3.079,3.079,0,0,1-.92-2.126l-.53-4.791-1.71.189-.138-1.252,1.71-.189-.264-2.387,1.592-.176.264,2.387,3.115-.344.138,1.252-3.115.345.545,4.927a1.3,1.3,0,0,0,1.634,1.292,5.277,5.277,0,0,0,1.612-.453Z" transform="translate(353.685 -642.184)" fill="#fff"/>
      <path id="Path_238" data-name="Path 238" d="M-271.662,645.811a2.818,2.818,0,0,0-1-1.734,5.373,5.373,0,0,0-2.331-.913,6.525,6.525,0,0,0-2.825-.054,1.485,1.485,0,0,0-1.217,1.154,1.547,1.547,0,0,0,.109,1.018,2.063,2.063,0,0,0,.8.787,8.42,8.42,0,0,0,1.608.706l2.245.776a6.185,6.185,0,0,1,2.845,1.765,3,3,0,0,1,.547,2.541,2.932,2.932,0,0,1-1.892,2.284,7.293,7.293,0,0,1-4.089.164,8.094,8.094,0,0,1-4.071-1.749,3.736,3.736,0,0,1-1.147-3.167l1.707.326a2.491,2.491,0,0,0,.936,2,6.372,6.372,0,0,0,2.853,1.134,5.642,5.642,0,0,0,2.778-.016,1.673,1.673,0,0,0,1.223-1.319,1.54,1.54,0,0,0-.39-1.409,4.907,4.907,0,0,0-1.944-1.082l-2.017-.7a10.479,10.479,0,0,1-2.5-1.189,3.126,3.126,0,0,1-1.176-1.378,3.158,3.158,0,0,1-.105-1.763,2.777,2.777,0,0,1,1.887-2.163,7.642,7.642,0,0,1,4.116-.125,9.034,9.034,0,0,1,2.54.823,3.97,3.97,0,0,1,1.5,1.337,4.484,4.484,0,0,1,.648,1.962Z" transform="translate(342.146 -641.495)" fill="#fff"/>
      <path id="Path_239" data-name="Path 239" d="M-259.421,658.508l3.135-8.229,1.5.57-3.135,8.23Zm3.663-9.76.619-1.624,1.592.607-.618,1.623Z" transform="translate(331.541 -644.128)" fill="#fff"/>
      <path id="Path_240" data-name="Path 240" d="M-241.492,671l2.968-4.49a2.58,2.58,0,0,0,.55-1.76,2.113,2.113,0,0,0-1.054-1.371,3.222,3.222,0,0,0-2.36-.477,2.347,2.347,0,0,0-.925.317,2.12,2.12,0,0,0-.673.648l-2.827,4.277-1.336-.883,2.968-4.491a2.579,2.579,0,0,0,.55-1.76,2.11,2.11,0,0,0-1.054-1.37,2.866,2.866,0,0,0-1.128-.44,3.379,3.379,0,0,0-1.287.048,2.587,2.587,0,0,0-1.711,1.136l-2.658,4.022-1.336-.883,4.856-7.347,1.321.873-.9,1.364a4.781,4.781,0,0,1,2.087-.345,3.885,3.885,0,0,1,1.85.661,3.782,3.782,0,0,1,1.4,1.5,2.58,2.58,0,0,1,.144,1.79,5.015,5.015,0,0,1,2.153-.292,4.367,4.367,0,0,1,1.959.743,3.345,3.345,0,0,1,1.608,2.094,3.5,3.5,0,0,1-.7,2.589l-3.127,4.732Z" transform="translate(328.441 -648.36)" fill="#fff"/>
      <path id="Path_241" data-name="Path 241" d="M-232.007,685.59l9.351-7.7,1.007,1.223-1.237,1.018a3.96,3.96,0,0,1,2.087.378,5.16,5.16,0,0,1,1.839,1.443,4.769,4.769,0,0,1,1.05,2.147,3.909,3.909,0,0,1-.229,2.24,5.071,5.071,0,0,1-1.538,2,5.172,5.172,0,0,1-2.238,1.114,4.131,4.131,0,0,1-2.33-.178,4.828,4.828,0,0,1-2.043-1.518,4.355,4.355,0,0,1-1.045-3.949l-3.656,3.01Zm6.767-3.519a3.076,3.076,0,0,0-1.147,2.091,2.753,2.753,0,0,0,.146,1.237,3.876,3.876,0,0,0,.683,1.191A3.438,3.438,0,0,0-223.274,688a3.438,3.438,0,0,0,2.511-.943,3.322,3.322,0,0,0,1.335-2.224,3.25,3.25,0,0,0-.86-2.425,3.74,3.74,0,0,0-1.092-.91,3.329,3.329,0,0,0-1.3-.41,2.958,2.958,0,0,0-1.142.113,2.822,2.822,0,0,0-1,.526Z" transform="translate(318.709 -658.518)" fill="#fff"/>
      <path id="Path_242" data-name="Path 242" d="M-214.154,700.353l10.519-6.1.8,1.385-10.519,6.1Z" transform="translate(310.359 -666.168)" fill="#fff"/>
      <path id="Path_243" data-name="Path 243" d="M-205.608,709.194a2.887,2.887,0,0,0-1.687,1.631,3.362,3.362,0,0,0,.107,2.489q.893,2.3,2.478,2.291l.554,1.43q-2.815.325-4.232-3.328a4.88,4.88,0,0,1-.132-3.731,4.456,4.456,0,0,1,2.682-2.411,5.021,5.021,0,0,1,2.5-.339,4.209,4.209,0,0,1,2.186.97,5.228,5.228,0,0,1,1.5,2.176,4.88,4.88,0,0,1,.169,3.662,4.254,4.254,0,0,1-2.591,2.339l-.651.253Zm3.444,5.534a2.5,2.5,0,0,0,1.54-1.493,3.491,3.491,0,0,0-.193-2.428,3.319,3.319,0,0,0-1.456-1.774,2.892,2.892,0,0,0-2.2-.244Z" transform="translate(307.869 -672.22)" fill="#fff"/>
    </g>
  </g>
</svg>
