<svg id="Like" xmlns="http://www.w3.org/2000/svg" width="25" height="25" viewBox="0 0 25 25">
  <circle id="Ellipse_91" data-name="Ellipse 91" cx="12.5" cy="12.5" r="12.5" fill="rgba(242,242,242,0.5)"/>
  <path id="Path_410" data-name="Path 410" d="M17.73,10.38a6.057,6.057,0,0,1-1.93,3.43,23.264,23.264,0,0,1-3.82,3.13,24.717,24.717,0,0,1-3.81-3.13,5.777,5.777,0,0,1-1.9-3.4A3.093,3.093,0,0,1,9.33,7.06a3.344,3.344,0,0,1,2.31,1.28l.38.38.34-.38a3.526,3.526,0,0,1,2.41-1.28A2.971,2.971,0,0,1,17.73,10.38Z" transform="translate(0.5 1.44)" fill="none" stroke="#0069F1" stroke-linecap="round" stroke-linejoin="round" stroke-width="1"/>
</svg>
