<svg xmlns="http://www.w3.org/2000/svg" width="35" height="20" viewBox="0 0 35 20">
  <rect id="Rectangle_235" data-name="Rectangle 235" width="35" height="20" rx="10" fill="#f6f6f6"/>
  <path id="Path_414" data-name="Path 414" d="M17.73,10.38a6.057,6.057,0,0,1-1.93,3.43,23.264,23.264,0,0,1-3.82,3.13,24.717,24.717,0,0,1-3.81-3.13,5.777,5.777,0,0,1-1.9-3.4A3.093,3.093,0,0,1,9.33,7.06a3.344,3.344,0,0,1,2.31,1.28l.38.38.34-.38a3.526,3.526,0,0,1,2.41-1.28A2.971,2.971,0,0,1,17.73,10.38Z" transform="translate(0.5 -2)" fill="#0069f1" stroke="#0069f1" stroke-linecap="round" stroke-linejoin="round" stroke-width="1"/>
</svg>
