<svg xmlns="http://www.w3.org/2000/svg" width="178.758" height="108.28" viewBox="0 0 178.758 108.28">
  <g id="Group_1620" data-name="Group 1620" transform="translate(-1169.721 -1832.342)">
    <rect id="Rectangle_273" data-name="Rectangle 273" width="39.608" height="109.524" rx="5.997" transform="translate(1248.58 1833.756) rotate(45)" fill="none" stroke="#0169F1" stroke-miterlimit="10" stroke-width="2"/>
    <rect id="Rectangle_274" data-name="Rectangle 274" width="39.608" height="109.524" rx="6.002" transform="translate(1347.979 1898.011) rotate(90)" fill="#0169F1" stroke="#0169F1" stroke-miterlimit="10" stroke-width="1"/>
    <g id="Group_1617" data-name="Group 1617">
      <g id="Group_1616" data-name="Group 1616">
        <path id="Path_165" data-name="Path 165" d="M1265.1,1923.472l-2.44-4.272q-.162.014-.694.014h-3.312v4.258h-1.434v-10.556h4.923q4.08,0,4.081,3.164a2.724,2.724,0,0,1-2.085,2.824l2.647,4.568Zm-3.09-5.544q2.691,0,2.691-1.878a1.586,1.586,0,0,0-.636-1.419,3.705,3.705,0,0,0-2.025-.429h-3.386v3.726Z" fill="#fff"/>
        <path id="Path_166" data-name="Path 166" d="M1268.963,1920.042a2.51,2.51,0,0,0,.791,1.878,2.922,2.922,0,0,0,2.048.695q2.143,0,2.631-1.287h1.331q-.621,2.382-4.021,2.381a4.242,4.242,0,0,1-3.061-1.064,3.869,3.869,0,0,1-1.109-2.928,4.362,4.362,0,0,1,.511-2.129,3.656,3.656,0,0,1,1.471-1.464,4.526,4.526,0,0,1,2.232-.532,4.241,4.241,0,0,1,3.016,1.012,3.7,3.7,0,0,1,1.08,2.832v.606Zm5.56-1.05a2.176,2.176,0,0,0-.725-1.714,3.025,3.025,0,0,0-2.025-.607,2.878,2.878,0,0,0-1.893.621,2.5,2.5,0,0,0-.887,1.7Z" fill="#fff"/>
        <path id="Path_167" data-name="Path 167" d="M1283.925,1923.472v-1.2a4.351,4.351,0,0,1-1.529,1.057,5.191,5.191,0,0,1-1.93.332,3.729,3.729,0,0,1-2.292-.606,2.042,2.042,0,0,1-.8-1.73,1.965,1.965,0,0,1,1.057-1.826,7.42,7.42,0,0,1,3.32-.657l2.143-.06v-.266a1.7,1.7,0,0,0-.555-1.4,2.71,2.71,0,0,0-1.722-.451,4.412,4.412,0,0,0-1.707.266,1.429,1.429,0,0,0-.821.843l-1.272-.162q.459-2.027,3.86-2.026a4.17,4.17,0,0,1,2.683.724,2.709,2.709,0,0,1,.88,2.218v4.938Zm-.029-3.7-2.129.059a6.18,6.18,0,0,0-2.247.37,1.062,1.062,0,0,0-.71,1.005,1.112,1.112,0,0,0,.517.991,2.722,2.722,0,0,0,1.494.34,4.07,4.07,0,0,0,1.323-.215,3.352,3.352,0,0,0,1.087-.6,1.682,1.682,0,0,0,.665-1.345Z" fill="#fff"/>
        <path id="Path_168" data-name="Path 168" d="M1287.607,1923.472v-10.556H1289v10.556Z" fill="#fff"/>
        <path id="Path_169" data-name="Path 169" d="M1298.932,1923.472v-9.27h-4.377v-1.286h10.216v1.286H1300.4v9.27Z" fill="#fff"/>
        <path id="Path_170" data-name="Path 170" d="M1311.04,1923.472v-1.2a4.346,4.346,0,0,1-1.53,1.057,5.187,5.187,0,0,1-1.93.332,3.725,3.725,0,0,1-2.291-.606,2.039,2.039,0,0,1-.8-1.73,1.965,1.965,0,0,1,1.057-1.826,7.418,7.418,0,0,1,3.319-.657l2.144-.06v-.266a1.7,1.7,0,0,0-.555-1.4,2.711,2.711,0,0,0-1.722-.451,4.414,4.414,0,0,0-1.708.266,1.424,1.424,0,0,0-.82.843l-1.272-.162q.458-2.027,3.859-2.026a4.168,4.168,0,0,1,2.683.724,2.706,2.706,0,0,1,.88,2.218v4.938Zm-.029-3.7-2.129.059a6.172,6.172,0,0,0-2.247.37,1.061,1.061,0,0,0-.71,1.005,1.112,1.112,0,0,0,.517.991,2.721,2.721,0,0,0,1.493.34,4.08,4.08,0,0,0,1.324-.215,3.347,3.347,0,0,0,1.086-.6,1.68,1.68,0,0,0,.666-1.345Z" fill="#fff"/>
        <path id="Path_171" data-name="Path 171" d="M1314.721,1923.472v-10.556h1.39v10.556Z" fill="#fff"/>
        <path id="Path_172" data-name="Path 172" d="M1325,1923.472l-3.193-4.42-1.878,1.374v3.046h-1.39v-10.556h1.39v6.121l4.391-3.209h1.922l-3.4,2.484,3.8,5.16Z" fill="#fff"/>
        <path id="Path_173" data-name="Path 173" d="M1327.88,1923.472v-1.759h1.567v1.759Zm.1-3.031-.044-7.525h1.449l-.044,7.525Z" fill="#fff"/>
      </g>
    </g>
    <g id="Group_1619" data-name="Group 1619">
      <g id="Group_1618" data-name="Group 1618">
        <path id="Path_174" data-name="Path 174" d="M1200.309,1917.89l-7.464-7.465,1.035-1.034,6.555,6.555,4.892-4.893.733,1.087Z" fill="#0169F1"/>
        <path id="Path_175" data-name="Path 175" d="M1205.421,1907.927a2.5,2.5,0,0,0,1.887.768,2.92,2.92,0,0,0,1.94-.956q1.516-1.516.95-2.771l.941-.941q1.246,2.123-1.16,4.527a4.241,4.241,0,0,1-2.916,1.412,3.873,3.873,0,0,1-2.854-1.286,4.363,4.363,0,0,1-1.145-1.867,3.654,3.654,0,0,1,.006-2.075,4.526,4.526,0,0,1,1.2-1.955,4.236,4.236,0,0,1,2.848-1.417,3.7,3.7,0,0,1,2.766,1.24l.428.428Zm3.189-4.674a2.178,2.178,0,0,0-1.725-.7,3.035,3.035,0,0,0-1.861,1,2.883,2.883,0,0,0-.9,1.777,2.5,2.5,0,0,0,.575,1.83Z" fill="#0169F1"/>
        <path id="Path_176" data-name="Path 176" d="M1217.465,1900.545a5.929,5.929,0,0,1-1.129,1.548,2.478,2.478,0,0,1-1.736.878,2.672,2.672,0,0,1-1.777-.941l-2.958-2.958-1.056,1.055-.774-.773,1.056-1.056-1.474-1.474.982-.982,1.474,1.473,1.924-1.923.774.773-1.924,1.924,3.042,3.042a1.13,1.13,0,0,0,1.809-.01,4.583,4.583,0,0,0,.847-1.181Z" fill="#0169F1"/>
        <path id="Path_177" data-name="Path 177" d="M1212.948,1894.837l-1.86-2.654,1.035-1.036,1.6,2.917Z" fill="#0169F1"/>
        <path id="Path_178" data-name="Path 178" d="M1220.947,1889.287a1.556,1.556,0,0,0-1.214-.032,4.011,4.011,0,0,0-1.389.983,3.961,3.961,0,0,0-.983,1.4.9.9,0,0,0,.125,1,.816.816,0,0,0,.841.225,5.16,5.16,0,0,0,1.459-.852l.794-.585a9.369,9.369,0,0,1,1.736-1.077,2.043,2.043,0,0,1,1.187-.194,1.957,1.957,0,0,1,.988.58q1.652,1.651-1.025,4.328a5.427,5.427,0,0,1-2.431,1.563,2.6,2.6,0,0,1-2.18-.443l.931-.931q1.275.669,2.885-.941a4.435,4.435,0,0,0,1.092-1.532.967.967,0,0,0-.162-1.092.805.805,0,0,0-.867-.2,6.131,6.131,0,0,0-1.558.93l-.732.544a8.635,8.635,0,0,1-1.688,1.019,1.755,1.755,0,0,1-2.158-.413,1.809,1.809,0,0,1-.471-1.819,5.048,5.048,0,0,1,1.453-2.28,5.4,5.4,0,0,1,2.148-1.457,2.583,2.583,0,0,1,2,.255Z" fill="#0169F1"/>
        <path id="Path_179" data-name="Path 179" d="M1232.687,1885.513l-6.555-6.555-3.095,3.094-.909-.909,7.224-7.224.909.909-3.094,3.094,6.555,6.555Z" fill="#0169F1"/>
        <path id="Path_180" data-name="Path 180" d="M1241.249,1876.95l-.847-.847a4.345,4.345,0,0,1-.334,1.83,5.2,5.2,0,0,1-1.13,1.6,3.73,3.73,0,0,1-2.048,1.192,2.041,2.041,0,0,1-1.789-.659,1.965,1.965,0,0,1-.543-2.039,7.4,7.4,0,0,1,1.882-2.811l1.473-1.559-.187-.187a1.694,1.694,0,0,0-1.38-.6,2.7,2.7,0,0,0-1.537.9,4.4,4.4,0,0,0-1.019,1.4,1.426,1.426,0,0,0,.015,1.177l-1.014.784q-1.107-1.757,1.3-4.161a4.16,4.16,0,0,1,2.411-1.385,2.7,2.7,0,0,1,2.19.946l3.492,3.492Zm-2.635-2.593-1.463,1.547a6.2,6.2,0,0,0-1.328,1.851,1.063,1.063,0,0,0,.209,1.213,1.11,1.11,0,0,0,1.066.334,2.714,2.714,0,0,0,1.3-.815,4.066,4.066,0,0,0,.784-1.087,3.366,3.366,0,0,0,.345-1.192,1.682,1.682,0,0,0-.481-1.422Z" fill="#0169F1"/>
        <path id="Path_181" data-name="Path 181" d="M1243.852,1874.347l-7.464-7.465.982-.982,7.465,7.465Z" fill="#0169F1"/>
        <path id="Path_182" data-name="Path 182" d="M1251.119,1867.081l-5.385-.868-.356,2.3,2.154,2.154-.983.983-7.464-7.465.983-.983,4.328,4.328.836-5.373,1.359-1.359-.648,4.161,6.335.962Z" fill="#0169F1"/>
      </g>
    </g>
  </g>
</svg>
