<svg xmlns="http://www.w3.org/2000/svg" width="115.532" height="106.746" viewBox="0 0 115.532 106.746">
  <g id="Group_1702" data-name="Group 1702" transform="matrix(0.966, -0.259, 0.259, 0.966, -1005.068, -60.187)">
    <g id="Cloud" transform="translate(949.749 343.506)">
      <path id="Path_228" data-name="Path 228" d="M1033,365.5a22.87,22.87,0,0,0-39.843-14.438A19.847,19.847,0,0,0,960.7,366.381c0,.584.021,1.168.075,1.741a23.731,23.731,0,0,0,.487,40.394,22.5,22.5,0,0,0,35.138,13.249,24.316,24.316,0,0,0,36.815-12.3A26.636,26.636,0,0,0,1033,365.5Z" transform="translate(-949.749 -343.506)" fill="#fbb04b" stroke="#fbb04b" stroke-miterlimit="10" stroke-width="2"/>
    </g>
    <g id="Layer_8" data-name="Layer 8" transform="translate(985.693 370.561)">
      <ellipse id="Ellipse_103" data-name="Ellipse 103" cx="2.23" cy="4.3" rx="2.23" ry="4.3" fill="#fff"/>
    </g>
    <g id="Smile" transform="translate(981.259 384.761)">
      <path id="Path_229" data-name="Path 229" d="M995.163,401.121c.516,0,1.549,1.6,1.549,6.093a7.335,7.335,0,0,1-.258,2.117s3.666,3.615,11.618,3.615a24.372,24.372,0,0,0,13.168-3.718,10.16,10.16,0,0,1-.93-4.647c0-2.995,1.136-4.6,1.446-4.6s0,1.085,0,2.014c0,2.944,1.446,7.746,2.272,8.572s1.085,1.859.414,1.859-2.478-2.169-2.478-2.169a22.173,22.173,0,0,1-13.684,4.6c-8.417,0-12.341-4.337-12.341-4.337s-1.033,2.53-2.582,2.53,1.2-1.584,1.635-5.977C995.368,403.251,994.647,401.121,995.163,401.121Z" transform="translate(-992.887 -399.985)" fill="#fff"/>
    </g>
    <g id="Right_Eye_Closed" data-name="Right Eye Closed" transform="translate(1001.062 372.449)">
      <path id="Path_230" data-name="Path 230" d="M1026.051,387.482c.129,2.489-1.321-2.025-2.99-1.938s-2.925,4.741-3.054,2.252,1.119-4.577,2.788-4.663S1025.922,384.993,1026.051,387.482Z" transform="translate(-1019.997 -383.13)" fill="#fff"/>
    </g>
  </g>
</svg>
