<svg id="Reply" xmlns="http://www.w3.org/2000/svg" width="25" height="25" viewBox="0 0 25 25">
  <circle id="Ellipse_90" data-name="Ellipse 90" cx="12.5" cy="12.5" r="12.5" fill="rgba(242,242,242,0.5)"/>
  <g id="Group_1323" data-name="Group 1323" transform="translate(5.509 6.376)">
    <path id="Path_44" data-name="Path 44" d="M1225.178,1338.379c.271-.011.494.343.494.784v1.462c4.6.49,8.258,3.709,8.579,7.782a.22.22,0,0,1-.38.155,11.7,11.7,0,0,0-8.2-3.22v1.461c0,.6-.4.979-.723.677l-4.064-3.818c-.673-.682-.673-.682,0-1.357l4.064-3.82a.359.359,0,0,1,.229-.1Z" transform="translate(-1220.38 -1338.379)" fill="none" stroke="#0069F1" stroke-linecap="round" stroke-miterlimit="10" stroke-width="1"/>
  </g>
</svg>
