<svg id="Group_1527" data-name="Group 1527" xmlns="http://www.w3.org/2000/svg" width="19.534" height="78.228" viewBox="0 0 19.534 78.228">
  <rect id="Rectangle_87" data-name="Rectangle 87" width="19.534" height="5.626" rx="2.813" transform="translate(0 16.015)" fill="#0069f1"/>
  <circle id="Ellipse_58" data-name="Ellipse 58" cx="2.557" cy="2.557" r="2.557" transform="translate(2.466 5.715)" fill="#0069f1"/>
  <circle id="Ellipse_59" data-name="Ellipse 59" cx="2.962" cy="2.962" r="2.962" transform="translate(11.414 6.792)" fill="#0069f1"/>
  <circle id="Ellipse_60" data-name="Ellipse 60" cx="2.204" cy="2.204" r="2.204" transform="translate(7.787)" fill="#0069f1"/>
  <path id="Rectangle_88" data-name="Rectangle 88" d="M497.313,1890.043h14.02v49.576a7.01,7.01,0,0,1-7.009,7.011h0a7.01,7.01,0,0,1-7.01-7.01h0v-49.576Z" transform="translate(-494.556 -1868.402)" fill="#0069f1"/>
  <path id="Path_51" data-name="Path 51" d="M508.847,2011.674h0a5.063,5.063,0,0,1-5.063-5.063h0v-18.352l10.126-2.571v20.923a5.063,5.063,0,0,1-5.063,5.063Z" transform="translate(-499.08 -1935.257)" fill="#fff"/>
</svg>
